<?xml version="1.0" encoding="utf-8"?>
<!-- Generator: Adobe Illustrator 23.0.3, SVG Export Plug-In . SVG Version: 6.00 Build 0)  -->
<svg version="1.1" id="Layer_1" xmlns="http://www.w3.org/2000/svg" xmlns:xlink="http://www.w3.org/1999/xlink" x="0px" y="0px"
	 viewBox="0 0 101 62.2" style="enable-background:new 0 0 101 62.2;" xml:space="preserve">
<style type="text/css">
	.st0{display:none;}
	.st1{display:inline;}
	.st2{fill:url(#_x33__1_);}
	.st3{fill:url(#_x32__1_);}
	.st4{fill:url(#_x31__1_);}
	.st5{fill:url(#_x33__2_);}
	.st6{fill:url(#_x32__2_);}
	.st7{fill:url(#_x31__2_);}
</style>
<g class="st0">
	<g id="Insight_4_" class="st1">
		<g id="insight_4_">
			
				<linearGradient id="_x33__1_" gradientUnits="userSpaceOnUse" x1="43.42" y1="102.56" x2="143.42" y2="102.56" gradientTransform="matrix(1 0 0 -1 0 202)">
				<stop  offset="0" style="stop-color:#5BC6F0"/>
				<stop  offset="1" style="stop-color:#2F4A9A"/>
			</linearGradient>
			<path id="_x33__5_" class="st2" d="M143.4,87c0-9.1-7.4-16.4-16.4-16.4S110.6,78,110.6,87c0,2.2,1.8,4,4,4s4-1.8,4-4
				c0-4.7,3.8-8.4,8.4-8.4c4.6,0,8.4,3.8,8.4,8.4c0,4.7-3.8,8.4-8.4,8.4H47.4c-2.2,0-4,1.8-4,4s1.8,4,4,4h66.5
				c4.6,0,8.4,3.8,8.4,8.4c0,4.7-3.8,8.4-8.4,8.4s-8.4-3.8-8.4-8.4c0-2.2-1.8-4-4-4c-2.2,0-4,1.8-4,4c0,9.1,7.4,16.4,16.4,16.4
				s16.4-7.4,16.4-16.4c0-3.2-0.9-6-2.4-8.5C136.6,102.9,143.4,95.8,143.4,87z"/>
			
				<linearGradient id="_x32__1_" gradientUnits="userSpaceOnUse" x1="43.45" y1="76.87" x2="94.09" y2="76.87" gradientTransform="matrix(1 0 0 -1 0 202)">
				<stop  offset="0" style="stop-color:#5BC6F0"/>
				<stop  offset="1" style="stop-color:#2F4A9A"/>
			</linearGradient>
			<path id="_x32__5_" class="st3" d="M78.5,109.6H47.4c-2.2,0-4,1.8-4,4s1.8,4,4,4h31c4.2,0,7.6,3.4,7.6,7.6s-3.4,7.6-7.6,7.6
				s-7.6-3.4-7.6-7.6c0-2.2-1.8-4-4-4c-2.2,0-4,1.8-4,4c0,8.5,7,15.6,15.6,15.6c8.5,0,15.6-6.9,15.6-15.6S87,109.6,78.5,109.6z"/>
			
				<linearGradient id="_x31__1_" gradientUnits="userSpaceOnUse" x1="43.42" y1="127.93" x2="106.9" y2="127.93" gradientTransform="matrix(1 0 0 -1 0 202)">
				<stop  offset="0" style="stop-color:#5BC6F0"/>
				<stop  offset="1" style="stop-color:#2F4A9A"/>
			</linearGradient>
			<path id="_x31__5_" class="st4" d="M47.4,89.5h44.1c8.5,0,15.4-6.9,15.4-15.4c0-8.5-6.9-15.4-15.4-15.4
				c-8.5,0-15.4,6.9-15.4,15.4c0,2.2,1.8,4,4,4c2.2,0,4-1.8,4-4c0-4.1,3.4-7.4,7.4-7.4c4.1,0,7.4,3.4,7.4,7.4c0,4.1-3.4,7.4-7.4,7.4
				H47.4c-2.2,0-4,1.8-4,4C43.5,87.7,45.2,89.5,47.4,89.5z"/>
		</g>
	</g>
</g>
<g>
	<g id="c">
		
			<linearGradient id="_x33__2_" gradientUnits="userSpaceOnUse" x1="0.3867" y1="150.0776" x2="100.5942" y2="150.0776" gradientTransform="matrix(1 0 0 -1 0 202)">
			<stop  offset="0" style="stop-color:#94D1CF"/>
			<stop  offset="1" style="stop-color:#00A596"/>
		</linearGradient>
		<path id="_x33__4_" class="st5" d="M99.3,54.1L99.3,54.1c-1.5-1.2-2.8-2.6-3.9-4.2c-2.7-3.5-6.1-7.9-12.8-7.9
			c-6.6,0-10.1,4.3-12.8,7.9c-2.8,3.5-4.5,5.6-8.3,5.6c-3.7,0-5.4-2.1-8.2-5.6c-2.8-3.6-6.1-7.9-12.8-7.9s-10.1,4.3-12.8,7.9
			c-2.8,3.5-4.5,5.6-8.3,5.6c-3.7,0-5.4-2.1-8.2-5.6c-1.8-2.6-4-4.8-6.6-6.4c-1.5-0.8-3.3-0.1-4,1.5s-0.1,3.7,1.4,4.5
			c1.8,1.2,3.4,2.8,4.7,4.7c2.7,3.5,6.1,7.9,12.8,7.9c6.6,0,10.1-4.3,12.9-7.9c2.8-3.5,4.5-5.6,8.3-5.6c3.7,0,5.4,2.1,8.2,5.6
			C51.6,57.7,55,62,61.6,62s10.1-4.3,12.8-7.9c2.8-3.5,4.5-5.6,8.3-5.6c3.7,0,5.4,2.1,8.2,5.6c1.5,2.1,3.2,3.9,5.1,5.4
			c1.4,1,3.3,0.4,4.1-1.2C101,57,100.6,55.1,99.3,54.1z"/>
		
			<linearGradient id="_x32__2_" gradientUnits="userSpaceOnUse" x1="0.2862" y1="171.6076" x2="100.7278" y2="171.6076" gradientTransform="matrix(1 0 0 -1 0 202)">
			<stop  offset="0" style="stop-color:#94D1CF"/>
			<stop  offset="1" style="stop-color:#00A596"/>
		</linearGradient>
		<path id="_x32__4_" class="st6" d="M99.4,32.7c-0.1-0.1-0.1-0.1-0.2-0.2h0c-1.5-1.2-2.7-2.6-3.8-4.2c-2.7-3.5-6.1-7.9-12.8-7.9
			c-6.6,0-10.1,4.3-12.8,7.9c-2.8,3.5-4.5,5.6-8.2,5.6c-3.7,0-5.4-2.1-8.2-5.6c-2.8-3.6-6.1-7.9-12.8-7.9s-10.1,4.3-12.8,7.9
			c-2.8,3.5-4.5,5.6-8.3,5.6c-3.7,0-5.4-2.1-8.2-5.6c-1.8-2.6-4-4.8-6.6-6.4c-1.5-0.8-3.3-0.1-4,1.5S0.5,26.9,2,27.7
			c1.8,1.2,3.4,2.8,4.7,4.7c2.7,3.5,6.1,7.9,12.8,7.9c6.6,0,10.1-4.3,12.8-7.9c2.8-3.5,4.5-5.6,8.3-5.6c3.7,0,5.4,2.1,8.2,5.6
			c2.8,3.6,6.1,7.9,12.8,7.9s10.1-4.3,12.8-7.9c2.7-3.5,4.5-5.6,8.3-5.6c3.7,0,5.4,2.1,8.2,5.6c1.5,2.1,3.2,3.9,5.1,5.4
			c1.3,1.1,3.2,0.8,4.2-0.7C101.2,35.9,100.8,33.8,99.4,32.7z"/>
		
			<linearGradient id="_x31__2_" gradientUnits="userSpaceOnUse" x1="0.25" y1="191.8176" x2="100.75" y2="191.8176" gradientTransform="matrix(1 0 0 -1 0 202)">
			<stop  offset="0" style="stop-color:#94D1CF"/>
			<stop  offset="1" style="stop-color:#00A596"/>
		</linearGradient>
		<path id="_x31__4_" class="st7" d="M2,7.5c1.8,1.2,3.4,2.8,4.7,4.7c2.7,3.5,6.1,7.9,12.8,7.9c6.6,0,10.1-4.3,12.9-7.9
			c2.8-3.5,4.5-5.6,8.3-5.6c3.7,0,5.4,2.1,8.2,5.6c2.8,3.6,6.1,7.9,12.8,7.9s10.1-4.3,12.8-7.9c2.7-3.5,4.5-5.6,8.3-5.6
			c3.7,0,5.4,2.1,8.2,5.6c1.5,2.1,3.2,3.9,5.1,5.4c1.3,1.1,3.2,0.8,4.2-0.7c1-1.5,0.7-3.6-0.7-4.7c-0.1-0.1-0.1-0.1-0.2-0.2l-0.1,0
			c-1.5-1.2-2.7-2.6-3.8-4.2c-2.7-3.5-6.1-7.9-12.8-7.9S72.5,4.5,69.7,8.1c-2.8,3.5-4.5,5.6-8.3,5.6c-3.7,0-5.4-2.1-8.2-5.6
			c-2.8-3.6-6.1-7.9-12.8-7.9S30.4,4.4,27.7,7.9c-2.8,3.5-4.5,5.6-8.3,5.6c-3.7,0-5.4-2.1-8.2-5.6c-1.8-2.6-4-4.8-6.6-6.4
			C3.1,0.6,1.3,1.4,0.6,3C-0.2,4.7,0.4,6.7,2,7.5z"/>
	</g>
</g>
<g id="Layer_3" class="st0">
</g>
</svg>
