<?xml version="1.0" encoding="utf-8"?>
<!-- Generator: Adobe Illustrator 23.0.3, SVG Export Plug-In . SVG Version: 6.00 Build 0)  -->
<svg version="1.1" id="Layer_1" xmlns="http://www.w3.org/2000/svg" xmlns:xlink="http://www.w3.org/1999/xlink" x="0px" y="0px"
	 viewBox="0 0 100.3 89" style="enable-background:new 0 0 100.3 89;" xml:space="preserve">
<style type="text/css">
	.st0{display:none;}
	.st1{display:inline;}
	.st2{fill:url(#_x33__1_);}
	.st3{fill:url(#_x32__1_);}
	.st4{fill:url(#_x31__1_);}
	.st5{fill:url(#_x33__2_);}
	.st6{fill:url(#_x32__2_);}
	.st7{fill:url(#_x31__2_);}
	.st8{fill:url(#c_2_);}
</style>
<g class="st0">
	<g id="Insight_4_" class="st1">
		<g id="insight_4_">
			
				<linearGradient id="_x33__1_" gradientUnits="userSpaceOnUse" x1="-0.84" y1="46.1556" x2="99.16" y2="46.1556" gradientTransform="matrix(1 0 0 -1 0 89.1912)">
				<stop  offset="0" style="stop-color:#5BC6F0"/>
				<stop  offset="1" style="stop-color:#2F4A9A"/>
			</linearGradient>
			<path id="_x33__5_" class="st2" d="M99.2,30.6c0-9.1-7.4-16.4-16.4-16.4s-16.4,7.4-16.4,16.4c0,2.2,1.8,4,4,4s4-1.8,4-4
				c0-4.7,3.8-8.4,8.4-8.4c4.6,0,8.4,3.8,8.4,8.4c0,4.7-3.8,8.4-8.4,8.4H3.1c-2.2,0-4,1.8-4,4s1.8,4,4,4h66.5c4.6,0,8.4,3.8,8.4,8.4
				c0,4.7-3.8,8.4-8.4,8.4s-8.4-3.8-8.4-8.4c0-2.2-1.8-4-4-4c-2.2,0-4,1.8-4,4c0,9.1,7.4,16.4,16.4,16.4s16.4-7.4,16.4-16.4
				c0-3.2-0.9-6-2.4-8.5C92.3,46.5,99.2,39.4,99.2,30.6z"/>
			
				<linearGradient id="_x32__1_" gradientUnits="userSpaceOnUse" x1="-0.81" y1="20.4656" x2="49.83" y2="20.4656" gradientTransform="matrix(1 0 0 -1 0 89.1912)">
				<stop  offset="0" style="stop-color:#5BC6F0"/>
				<stop  offset="1" style="stop-color:#2F4A9A"/>
			</linearGradient>
			<path id="_x32__5_" class="st3" d="M34.2,53.2H3.2c-2.2,0-4,1.8-4,4s1.8,4,4,4h31c4.2,0,7.6,3.4,7.6,7.6s-3.4,7.6-7.6,7.6
				s-7.6-3.4-7.6-7.6c0-2.2-1.8-4-4-4c-2.2,0-4,1.8-4,4c0,8.5,7,15.6,15.6,15.6c8.5,0,15.6-6.9,15.6-15.6S42.7,53.2,34.2,53.2z"/>
			
				<linearGradient id="_x31__1_" gradientUnits="userSpaceOnUse" x1="-0.84" y1="71.5256" x2="62.64" y2="71.5256" gradientTransform="matrix(1 0 0 -1 0 89.1912)">
				<stop  offset="0" style="stop-color:#5BC6F0"/>
				<stop  offset="1" style="stop-color:#2F4A9A"/>
			</linearGradient>
			<path id="_x31__5_" class="st4" d="M3.2,33.1h44.1c8.5,0,15.4-6.9,15.4-15.4c0-8.5-6.9-15.4-15.4-15.4c-8.5,0-15.4,6.9-15.4,15.4
				c0,2.2,1.8,4,4,4c2.2,0,4-1.8,4-4c0-4.1,3.4-7.4,7.4-7.4c4.1,0,7.4,3.4,7.4,7.4c0,4.1-3.4,7.4-7.4,7.4H3.1c-2.2,0-4,1.8-4,4
				C-0.8,31.2,1,33.1,3.2,33.1z"/>
		</g>
	</g>
</g>
<g class="st0">
	<g id="c" class="st1">
		
			<linearGradient id="_x33__2_" gradientUnits="userSpaceOnUse" x1="-0.2057" y1="25.1906" x2="99.4914" y2="25.1906" gradientTransform="matrix(1 0 0 -1 0 89.1912)">
			<stop  offset="0" style="stop-color:#94D1CF"/>
			<stop  offset="1" style="stop-color:#00A596"/>
		</linearGradient>
		<path id="_x33__4_" class="st5" d="M98.2,66.1L98.2,66.1c-1.4-1.2-2.8-2.6-3.9-4.2c-2.7-3.5-6.1-7.9-12.7-7.9
			c-6.6,0-10,4.3-12.8,7.9c-2.8,3.5-4.5,5.5-8.2,5.5c-3.7,0-5.4-2.1-8.2-5.6c-2.8-3.6-6.1-7.9-12.7-7.9s-10,4.3-12.8,7.9
			c-2.8,3.5-4.5,5.5-8.2,5.5c-3.7,0-5.4-2.1-8.2-5.6c-1.8-2.6-4-4.8-6.6-6.4c-1.5-0.8-3.3-0.1-4,1.5S0,60.5,1.5,61.3
			c1.8,1.2,3.4,2.8,4.7,4.7c2.7,3.5,6.1,7.9,12.7,7.9c6.6,0,10-4.3,12.8-7.9c2.8-3.5,4.5-5.5,8.2-5.5s5.4,2.1,8.2,5.6
			c2.8,3.6,6.1,7.9,12.7,7.9s10-4.3,12.8-7.9c2.8-3.5,4.5-5.5,8.2-5.5c3.7,0,5.4,2.1,8.2,5.6c1.4,2.1,3.2,3.9,5.1,5.4
			c1.4,1,3.3,0.4,4.1-1.2C99.8,69.1,99.5,67.2,98.2,66.1z"/>
		
			<linearGradient id="_x32__2_" gradientUnits="userSpaceOnUse" x1="-0.3057" y1="46.7206" x2="99.6242" y2="46.7206" gradientTransform="matrix(1 0 0 -1 0 89.1912)">
			<stop  offset="0" style="stop-color:#94D1CF"/>
			<stop  offset="1" style="stop-color:#00A596"/>
		</linearGradient>
		<path id="_x32__4_" class="st6" d="M98.3,44.7c-0.1-0.1-0.1-0.1-0.2-0.2h0c-1.4-1.2-2.7-2.6-3.8-4.2c-2.7-3.5-6.1-7.9-12.7-7.9
			c-6.6,0-10,4.3-12.8,7.9c-2.8,3.5-4.5,5.6-8.2,5.6c-3.7,0-5.4-2.1-8.2-5.6c-2.8-3.6-6.1-7.9-12.7-7.9s-10,4.3-12.8,7.9
			c-2.8,3.5-4.5,5.6-8.2,5.6c-3.7,0-5.4-2.1-8.2-5.6c-1.8-2.6-4-4.8-6.6-6.4c-1.5-0.8-3.3-0.1-4,1.5s-0.1,3.7,1.4,4.5
			C3.2,41,4.8,42.6,6,44.5c2.7,3.5,6.1,7.9,12.7,7.9c6.6,0,10-4.3,12.8-7.9c2.8-3.5,4.5-5.6,8.2-5.6c3.7,0,5.4,2.1,8.2,5.6
			c2.8,3.6,6.1,7.9,12.7,7.9s10-4.3,12.8-7.9c2.7-3.5,4.5-5.6,8.2-5.6c3.7,0,5.4,2.1,8.2,5.6c1.4,2.1,3.2,3.9,5.1,5.4
			c1.3,1.1,3.2,0.8,4.2-0.7S99.7,45.8,98.3,44.7z"/>
		
			<linearGradient id="_x31__2_" gradientUnits="userSpaceOnUse" x1="-0.3417" y1="66.9306" x2="99.6464" y2="66.9306" gradientTransform="matrix(1 0 0 -1 0 89.1912)">
			<stop  offset="0" style="stop-color:#94D1CF"/>
			<stop  offset="1" style="stop-color:#00A596"/>
		</linearGradient>
		<path id="_x31__4_" class="st7" d="M1.3,19.6c1.8,1.2,3.4,2.8,4.7,4.7c2.7,3.5,6.1,7.9,12.7,7.9c6.6,0,10-4.3,12.8-7.9
			c2.8-3.5,4.5-5.6,8.2-5.6c3.7,0,5.4,2.1,8.2,5.6c2.8,3.6,6.1,7.9,12.7,7.9s10-4.3,12.8-7.9c2.7-3.5,4.5-5.6,8.2-5.6
			c3.7,0,5.4,2.1,8.2,5.6c1.4,2.1,3.2,3.9,5.1,5.4c1.3,1.1,3.2,0.8,4.2-0.7c1-1.5,0.7-3.6-0.7-4.7c-0.1-0.1-0.1-0.1-0.2-0.2l-0.1,0
			c-1.4-1.2-2.7-2.6-3.8-4.2c-2.7-3.5-6.1-7.9-12.7-7.9c-6.6,0-10,4.3-12.8,7.9c-2.8,3.5-4.5,5.6-8.2,5.6c-3.7,0-5.4-2.1-8.2-5.6
			c-2.8-3.6-6.1-7.9-12.7-7.9s-10,4.3-12.8,7.9c-2.8,3.5-4.5,5.6-8.2,5.6c-3.7,0-5.4-2.1-8.2-5.6c-1.8-2.6-4-4.8-6.6-6.4
			c-1.5-0.8-3.3-0.1-4,1.5C-0.8,16.7-0.2,18.8,1.3,19.6z"/>
	</g>
</g>
<g id="Layer_3">
	<g id="Certainty">
		<g id="C" transform="translate(0,-952.36218)">
			
				<linearGradient id="c_2_" gradientUnits="userSpaceOnUse" x1="0.5" y1="44.6828" x2="99.7706" y2="44.6828" gradientTransform="matrix(1 0 0 -1 0 1041.5535)">
				<stop  offset="0" style="stop-color:#95C68F"/>
				<stop  offset="1" style="stop-color:#006033"/>
			</linearGradient>
			<path id="c_1_" class="st8" d="M83.2,952.9c-4.7,0.3-9.2,1.5-13.1,3.8c-7.2,4.1-12,12.3-10.4,22.7l-5.8,3.8l0.1-11.6
				c0.1-2-1.8-3.9-3.8-3.9c-2,0-3.8,1.9-3.8,3.9l-0.3,30.6l-5.7-3.9c1.8-10.3-2.7-18.7-9.9-22.9c-3.9-2.3-8.4-3.6-13-4
				c-4.7-0.4-9.5,0.1-14.1,1.5c-1.6,0.5-2.7,2-2.7,3.7c0,9.6,3.6,19.2,10.3,25.3c6.2,5.7,15.5,7.6,24.9,2.7l10.1,6.9l-0.1,7.3
				l-19-0.2c-4.9-0.1-9.5,7.6-9.5,12.5c0,3.7,2.3,7,5.5,8.3l2.9,0.8v0c3.3,0.3,3.8,0.3,7.2,0.4l33,0.4c3.4,0,3.4,0,6.7-0.2v0
				l2.9-0.8c3.3-1.3,5.7-4.5,5.7-8.2c0.1-4.9-3.9-12.6-8.7-12.7l-19-0.2l0.3-26.4l10.2-6.7c9.3,5.1,18.7,3.4,25-2.1
				c6.8-5.9,10.6-15.5,10.9-25c0-1.6-1.1-3.2-2.6-3.7C92.2,953.3,87.7,952.7,83.2,952.9L83.2,952.9z M91.8,961.3
				c-0.9,6.5-3.8,12.8-7.9,16.4c-3.5,3-7.4,4.3-12.3,2.8l4.7-3c1.4-0.9,2.1-2.7,1.6-4.3c-0.5-1.6-2.1-2.7-3.7-2.7
				c-0.7,0-1.4,0.2-2,0.7l-5.2,3.4c0-5.5,2.7-8.9,6.8-11.3c2.8-1.5,6.2-2.4,9.9-2.7C86.4,960.4,89.4,960.8,91.8,961.3z M16.6,978.9
				c3.7,0.3,7.1,1.3,9.8,2.9c4.1,2.5,6.7,5.9,6.6,11.5l-5.2-3.5c-0.7-0.5-1.7-0.8-2.5-0.7c-1.6,0.2-3,1.3-3.3,2.9
				c-0.4,1.5,0.3,3.3,1.6,4.1l4.6,3.1c-4.9,1.4-8.8,0-12.2-3.1c-4-3.7-6.8-10.1-7.5-16.6C11.4,978.9,13.9,978.8,16.6,978.9z"/>
		</g>
	</g>
</g>
</svg>
