<?xml version="1.0" encoding="utf-8"?>
<!-- Generator: Adobe Illustrator 23.0.3, SVG Export Plug-In . SVG Version: 6.00 Build 0)  -->
<svg version="1.1" id="Layer_1" xmlns="http://www.w3.org/2000/svg" xmlns:xlink="http://www.w3.org/1999/xlink" x="0px" y="0px"
	 viewBox="0 0 101 83" style="enable-background:new 0 0 101 83;" xml:space="preserve">
<style type="text/css">
	.st0{fill:url(#_x33__1_);}
	.st1{fill:url(#_x32__1_);}
	.st2{fill:url(#_x31__1_);}
</style>
<g id="Insight_4_">
	<g id="insight_4_">
		
			<linearGradient id="_x33__1_" gradientUnits="userSpaceOnUse" x1="0.5" y1="43.8395" x2="100.5" y2="43.8395" gradientTransform="matrix(1 0 0 -1 0 85.0995)">
			<stop  offset="0" style="stop-color:#5BC6F0"/>
			<stop  offset="1" style="stop-color:#2F4A9A"/>
		</linearGradient>
		<path id="_x33__5_" class="st0" d="M100.5,28.8c0-9.1-7.4-16.4-16.4-16.4c-9,0-16.4,7.4-16.4,16.4c0,2.2,1.8,4,4,4
			c2.2,0,4-1.8,4-4c0-4.7,3.8-8.4,8.4-8.4c4.6,0,8.4,3.8,8.4,8.4c0,4.7-3.8,8.4-8.4,8.4H4.5c-2.2,0-4,1.8-4,4s1.8,4,4,4H71
			c4.6,0,8.4,3.8,8.4,8.4c0,4.7-3.8,8.4-8.4,8.4s-8.4-3.8-8.4-8.4c0-2.2-1.8-4-4-4c-2.2,0-4,1.8-4,4c0,9.1,7.4,16.4,16.4,16.4
			s16.4-7.4,16.4-16.4c0-3.2-0.9-6-2.4-8.5C93.7,44.8,100.5,37.6,100.5,28.8z"/>
		
			<linearGradient id="_x32__1_" gradientUnits="userSpaceOnUse" x1="0.53" y1="18.1495" x2="51.17" y2="18.1495" gradientTransform="matrix(1 0 0 -1 0 85.0995)">
			<stop  offset="0" style="stop-color:#5BC6F0"/>
			<stop  offset="1" style="stop-color:#2F4A9A"/>
		</linearGradient>
		<path id="_x32__5_" class="st1" d="M35.6,51.4H4.5c-2.2,0-4,1.8-4,4s1.8,4,4,4h31c4.2,0,7.6,3.4,7.6,7.6s-3.4,7.6-7.6,7.6
			S28,71.2,28,66.9c0-2.2-1.8-4-4-4c-2.2,0-4,1.8-4,4c0,8.5,7,15.6,15.6,15.6c8.5,0,15.6-6.9,15.6-15.6S44.1,51.4,35.6,51.4z"/>
		
			<linearGradient id="_x31__1_" gradientUnits="userSpaceOnUse" x1="0.5" y1="69.2095" x2="63.98" y2="69.2095" gradientTransform="matrix(1 0 0 -1 0 85.0995)">
			<stop  offset="0" style="stop-color:#5BC6F0"/>
			<stop  offset="1" style="stop-color:#2F4A9A"/>
		</linearGradient>
		<path id="_x31__5_" class="st2" d="M4.5,31.3h44.1c8.5,0,15.4-6.9,15.4-15.4C64,7.4,57,0.5,48.6,0.5c-8.5,0-15.4,6.9-15.4,15.4
			c0,2.2,1.8,4,4,4c2.2,0,4-1.8,4-4c0-4.1,3.4-7.4,7.4-7.4c4.1,0,7.4,3.4,7.4,7.4c0,4.1-3.4,7.4-7.4,7.4H4.5c-2.2,0-4,1.8-4,4
			C0.5,29.5,2.3,31.3,4.5,31.3z"/>
	</g>
</g>
</svg>
