<?xml version="1.0" encoding="utf-8"?>
<!-- Generator: Adobe Illustrator 23.0.3, SVG Export Plug-In . SVG Version: 6.00 Build 0)  -->
<svg version="1.1" id="Layer_1" xmlns="http://www.w3.org/2000/svg" xmlns:xlink="http://www.w3.org/1999/xlink" x="0px" y="0px"
	 viewBox="0 0 101.4 93" style="enable-background:new 0 0 101.4 93;" xml:space="preserve">
<style type="text/css">
	.st0{display:none;}
	.st1{display:inline;}
	.st2{fill:url(#_x33__1_);}
	.st3{fill:url(#_x32__1_);}
	.st4{fill:url(#_x31__1_);}
	.st5{fill:url(#_x33__2_);}
	.st6{fill:url(#_x32__2_);}
	.st7{fill:url(#_x31__2_);}
	.st8{fill:url(#c_2_);}
	.st9{fill:url(#SVGID_1_);}
	.st10{fill:url(#S_1_);}
</style>
<g class="st0">
	<g id="Insight_4_" class="st1">
		<g id="insight_4_">
			
				<linearGradient id="_x33__1_" gradientUnits="userSpaceOnUse" x1="-0.3077" y1="48.45" x2="99.6923" y2="48.45" gradientTransform="matrix(1 0 0 -1 0 93.7801)">
				<stop  offset="0" style="stop-color:#5BC6F0"/>
				<stop  offset="1" style="stop-color:#2F4A9A"/>
			</linearGradient>
			<path id="_x33__5_" class="st2" d="M99.7,32.9c0-9.1-7.4-16.4-16.4-16.4s-16.4,7.4-16.4,16.4c0,2.2,1.8,4,4,4s4-1.8,4-4
				c0-4.7,3.8-8.4,8.4-8.4c4.6,0,8.4,3.8,8.4,8.4c0,4.7-3.8,8.4-8.4,8.4H3.7c-2.2,0-4,1.8-4,4s1.8,4,4,4h66.5c4.6,0,8.4,3.8,8.4,8.4
				c0,4.7-3.8,8.4-8.4,8.4s-8.4-3.8-8.4-8.4c0-2.2-1.8-4-4-4c-2.2,0-4,1.8-4,4c0,9.1,7.4,16.4,16.4,16.4s16.4-7.4,16.4-16.4
				c0-3.2-0.9-6-2.4-8.5C92.8,48.8,99.7,41.7,99.7,32.9z"/>
			
				<linearGradient id="_x32__1_" gradientUnits="userSpaceOnUse" x1="-0.2777" y1="22.76" x2="50.3623" y2="22.76" gradientTransform="matrix(1 0 0 -1 0 93.7801)">
				<stop  offset="0" style="stop-color:#5BC6F0"/>
				<stop  offset="1" style="stop-color:#2F4A9A"/>
			</linearGradient>
			<path id="_x32__5_" class="st3" d="M34.8,55.5H3.7c-2.2,0-4,1.8-4,4s1.8,4,4,4h31c4.2,0,7.6,3.4,7.6,7.6s-3.4,7.6-7.6,7.6
				s-7.6-3.4-7.6-7.6c0-2.2-1.8-4-4-4c-2.2,0-4,1.8-4,4c0,8.5,7,15.6,15.6,15.6c8.5,0,15.6-6.9,15.6-15.6S43.3,55.5,34.8,55.5z"/>
			
				<linearGradient id="_x31__1_" gradientUnits="userSpaceOnUse" x1="-0.3077" y1="73.82" x2="63.1723" y2="73.82" gradientTransform="matrix(1 0 0 -1 0 93.7801)">
				<stop  offset="0" style="stop-color:#5BC6F0"/>
				<stop  offset="1" style="stop-color:#2F4A9A"/>
			</linearGradient>
			<path id="_x31__5_" class="st4" d="M3.7,35.4h44.1c8.5,0,15.4-6.9,15.4-15.4c0-8.5-6.9-15.4-15.4-15.4c-8.5,0-15.4,6.9-15.4,15.4
				c0,2.2,1.8,4,4,4c2.2,0,4-1.8,4-4c0-4.1,3.4-7.4,7.4-7.4c4.1,0,7.4,3.4,7.4,7.4c0,4.1-3.4,7.4-7.4,7.4H3.7c-2.2,0-4,1.8-4,4
				C-0.3,33.5,1.5,35.4,3.7,35.4z"/>
		</g>
	</g>
</g>
<g class="st0">
	<g id="c" class="st1">
		
			<linearGradient id="_x33__2_" gradientUnits="userSpaceOnUse" x1="0.3266" y1="27.485" x2="100.0237" y2="27.485" gradientTransform="matrix(1 0 0 -1 0 93.7801)">
			<stop  offset="0" style="stop-color:#94D1CF"/>
			<stop  offset="1" style="stop-color:#00A596"/>
		</linearGradient>
		<path id="_x33__4_" class="st5" d="M98.8,68.4L98.8,68.4c-1.4-1.2-2.8-2.6-3.9-4.2c-2.7-3.5-6.1-7.9-12.7-7.9
			c-6.6,0-10,4.3-12.8,7.9c-2.8,3.5-4.5,5.6-8.2,5.6c-3.7,0-5.4-2.1-8.2-5.6c-2.8-3.6-6.1-7.9-12.7-7.9s-10,4.3-12.8,7.9
			c-2.8,3.5-4.5,5.6-8.2,5.6c-3.7,0-5.4-2.1-8.2-5.6c-1.8-2.6-4-4.8-6.6-6.4c-1.5-0.8-3.3-0.1-4,1.5S0.5,62.8,2,63.6
			c1.8,1.2,3.4,2.8,4.7,4.7c2.7,3.5,6.1,7.9,12.7,7.9c6.6,0,10-4.3,12.8-7.9c2.8-3.5,4.5-5.6,8.2-5.6s5.4,2.1,8.2,5.6
			c2.8,3.6,6.1,7.9,12.7,7.9s10-4.3,12.8-7.9c2.8-3.5,4.5-5.6,8.2-5.6c3.7,0,5.4,2.1,8.2,5.6c1.4,2.1,3.2,3.9,5.1,5.4
			c1.4,1,3.3,0.4,4.1-1.2C100.4,71.4,100,69.5,98.8,68.4z"/>
		
			<linearGradient id="_x32__2_" gradientUnits="userSpaceOnUse" x1="0.2266" y1="49.015" x2="100.1565" y2="49.015" gradientTransform="matrix(1 0 0 -1 0 93.7801)">
			<stop  offset="0" style="stop-color:#94D1CF"/>
			<stop  offset="1" style="stop-color:#00A596"/>
		</linearGradient>
		<path id="_x32__4_" class="st6" d="M98.9,47c-0.1-0.1-0.1-0.1-0.2-0.2h0c-1.4-1.2-2.7-2.6-3.8-4.2c-2.7-3.5-6.1-7.9-12.7-7.9
			c-6.6,0-10,4.3-12.8,7.9c-2.8,3.5-4.5,5.6-8.2,5.6c-3.7,0-5.4-2.1-8.2-5.6c-2.8-3.6-6.1-7.9-12.7-7.9s-10,4.3-12.8,7.9
			c-2.8,3.5-4.5,5.6-8.2,5.6c-3.7,0-5.4-2.1-8.2-5.6c-1.8-2.6-4-4.8-6.6-6.4c-1.5-0.8-3.3-0.1-4,1.5s-0.1,3.7,1.4,4.5
			c1.8,1.2,3.4,2.8,4.7,4.7c2.7,3.5,6.1,7.9,12.7,7.9c6.6,0,10-4.3,12.8-7.9c2.8-3.5,4.5-5.6,8.2-5.6c3.7,0,5.4,2.1,8.2,5.6
			c2.8,3.6,6.1,7.9,12.7,7.9s10-4.3,12.8-7.9c2.7-3.5,4.5-5.6,8.2-5.6c3.7,0,5.4,2.1,8.2,5.6c1.4,2.1,3.2,3.9,5.1,5.4
			c1.3,1.1,3.2,0.8,4.2-0.7S100.2,48.1,98.9,47z"/>
		
			<linearGradient id="_x31__2_" gradientUnits="userSpaceOnUse" x1="0.1906" y1="69.2251" x2="100.1787" y2="69.2251" gradientTransform="matrix(1 0 0 -1 0 93.7801)">
			<stop  offset="0" style="stop-color:#94D1CF"/>
			<stop  offset="1" style="stop-color:#00A596"/>
		</linearGradient>
		<path id="_x31__4_" class="st7" d="M1.9,21.9c1.8,1.2,3.4,2.8,4.7,4.7c2.7,3.5,6.1,7.9,12.7,7.9c6.6,0,10-4.3,12.8-7.9
			c2.8-3.5,4.5-5.6,8.2-5.6c3.7,0,5.4,2.1,8.2,5.6c2.8,3.6,6.1,7.9,12.7,7.9s10-4.3,12.8-7.9c2.7-3.5,4.5-5.6,8.2-5.6
			c3.7,0,5.4,2.1,8.2,5.6c1.4,2.1,3.2,3.9,5.1,5.4c1.3,1.1,3.2,0.8,4.2-0.7c1-1.5,0.7-3.6-0.7-4.7c-0.1-0.1-0.1-0.1-0.2-0.2l-0.1,0
			c-1.4-1.2-2.7-2.6-3.8-4.2c-2.7-3.5-6.1-7.9-12.7-7.9c-6.6,0-10,4.3-12.8,7.9C66.6,26,64.8,28,61.1,28c-3.7,0-5.4-2.1-8.2-5.6
			c-2.8-3.6-6.1-7.9-12.7-7.9s-10,4.3-12.8,7.9c-2.8,3.5-4.5,5.6-8.2,5.6c-3.7,0-5.4-2.1-8.2-5.6c-1.8-2.6-4-4.8-6.6-6.4
			c-1.5-0.8-3.3-0.1-4,1.5C-0.2,19,0.4,21.1,1.9,21.9z"/>
	</g>
</g>
<g id="Layer_3" class="st0">
	<g id="Certainty" class="st1">
		<g id="C" transform="translate(0,-952.36218)">
			
				<linearGradient id="c_2_" gradientUnits="userSpaceOnUse" x1="0.5323" y1="47.4772" x2="99.8029" y2="47.4772" gradientTransform="matrix(1 0 0 -1 0 1046.1422)">
				<stop  offset="0" style="stop-color:#95C68F"/>
				<stop  offset="1" style="stop-color:#006033"/>
			</linearGradient>
			<path id="c_1_" class="st8" d="M83.2,954.7c-4.7,0.3-9.2,1.5-13.1,3.8c-7.2,4.1-12,12.3-10.4,22.7l-5.8,3.8l0.1-11.6
				c0.1-2-1.8-3.9-3.8-3.9c-2,0-3.8,1.9-3.8,3.9L46,1004l-5.7-3.9c1.8-10.3-2.7-18.7-9.9-22.9c-3.9-2.3-8.4-3.6-13-4
				c-4.7-0.4-9.5,0.1-14.1,1.5c-1.6,0.5-2.7,2-2.7,3.7c0,9.6,3.6,19.2,10.3,25.3c6.2,5.7,15.5,7.6,24.9,2.7l10.1,6.9l-0.1,7.3
				l-19-0.2c-4.9-0.1-9.5,7.6-9.5,12.5c0,3.7,2.3,7,5.5,8.3l2.9,0.8v0c3.3,0.3,3.8,0.3,7.2,0.4l33,0.4c3.4,0,3.4,0,6.7-0.2v0
				l2.9-0.8c3.3-1.3,5.7-4.5,5.7-8.2c0.1-4.9-3.9-12.6-8.7-12.7l-19-0.2l0.3-26.4l10.2-6.7c9.3,5.1,18.7,3.4,25-2.1
				c6.8-5.9,10.6-15.5,10.9-25c0-1.6-1.1-3.2-2.6-3.7C92.2,955.1,87.7,954.5,83.2,954.7L83.2,954.7z M91.8,963.1
				c-0.9,6.5-3.8,12.8-7.9,16.4c-3.5,3-7.4,4.3-12.3,2.8l4.7-3c1.4-0.9,2.1-2.7,1.6-4.3c-0.5-1.6-2.1-2.7-3.7-2.7
				c-0.7,0-1.4,0.2-2,0.7l-5.2,3.4c0-5.5,2.7-8.9,6.8-11.3c2.8-1.5,6.2-2.4,9.9-2.7C86.4,962.2,89.4,962.6,91.8,963.1z M16.7,980.7
				c3.7,0.3,7.1,1.3,9.8,2.9c4.1,2.5,6.7,5.9,6.6,11.5l-5.2-3.5c-0.7-0.5-1.7-0.8-2.5-0.7c-1.6,0.2-3,1.3-3.3,2.9
				c-0.4,1.5,0.3,3.3,1.6,4.1l4.6,3.1c-4.9,1.4-8.8,0-12.2-3.1c-4-3.7-6.8-10.1-7.5-16.6C11.4,980.7,14,980.6,16.7,980.7z"/>
		</g>
	</g>
</g>
<g id="Layer_4" class="st0">
	<g id="Vitality" class="st1">
		<g id="V">
			
				<linearGradient id="SVGID_1_" gradientUnits="userSpaceOnUse" x1="12.1934" y1="44.63" x2="88.1907" y2="44.63" gradientTransform="matrix(1 0 0 -1 0 93.7801)">
				<stop  offset="0" style="stop-color:#FFE180"/>
				<stop  offset="1" style="stop-color:#EA3F23"/>
			</linearGradient>
			<path class="st9" d="M46.3,20.6c4.4,8.2,10.9,15,17,21.3c2,2.1,3.9,4,5.7,6c6.6,7.2,11,13.5,11.2,21c0.2,7.1-1.7,15.9-17.7,20.6
				c-4.6,1.3-9.1,2-13.5,2c-5.7,0-11.2-1.1-16.5-3.4c-8.7-3.7-12.6-9.3-12.3-17.8c0.3-6.7,2-13.1,5.2-19.8c2.6,5.3,6.9,6.5,10.3,6.5
				h0h0c3.9,0,9-1.6,11.4-9.1c0.1-0.2,0.1-0.3,0.2-0.5c2.6-7.6,1-14.7-0.3-20.5l-0.2-1.1C46.3,24.1,46.2,22.3,46.3,20.6 M49.3-1.1
				c-9.2,9-12.7,18.1-10.4,28.7c1.2,5.7,2.8,11.4,0.8,17.2c-0.6,1.8-1,4.1-3.9,4.1c0,0,0,0,0,0c-3,0-3.3-2.4-3.9-4.2
				c-1.8-4.9-0.6-10.1-1.1-16.6c-11,13.4-17.9,26.7-18.5,41.7C11.8,81.2,17,90.2,29.4,95.4c6.4,2.7,12.9,4,19.6,4
				c5.2,0,10.5-0.8,15.7-2.3c16-4.7,23.8-14.2,23.5-28.4C88,58.4,82.1,50.3,74.9,42.5C63.2,29.6,48.2,18.1,49.3-1.1L49.3-1.1z"/>
		</g>
	</g>
</g>
<g id="Layer_5">
	<g id="Spirit">
		
			<linearGradient id="S_1_" gradientUnits="userSpaceOnUse" x1="0.5" y1="47.2801" x2="100.859" y2="47.2801" gradientTransform="matrix(1 0 0 -1 0 93.7801)">
			<stop  offset="0" style="stop-color:#BBA5CD"/>
			<stop  offset="1" style="stop-color:#643F94"/>
		</linearGradient>
		<path id="S" class="st10" d="M49.6,92.5c-9.8,0-19.5-2.9-27.7-8.4C11.1,77,3.8,66.3,1.4,54.1C-1,42.3,1.5,29.8,8.3,19.7
			C14.8,10,24.6,3.4,35.8,1.2c10.7-2.1,22,0.3,31.1,6.5c8.8,6,14.6,14.9,16.5,25c1.8,9.6-0.5,19.8-6.1,28
			C71.9,68.5,64,73.6,54.9,75.1c-8.6,1.5-17.6-0.6-24.7-5.7C23.4,64.6,19,57.5,17.7,49.5C16.5,42,18.5,34.2,23,28
			c4.3-5.8,10.5-9.5,17.4-10.4c6.5-0.9,13.2,0.9,18.3,5c4.8,3.7,7.7,9,8.3,14.9c0.6,5.4-1.2,11-4.7,15.1c-3.2,3.7-7.6,6-12.4,6.2
			c-4.4,0.2-8.8-1.4-11.9-4.5c-2.7-2.7-4.1-6.2-4-10c0.2-3.5,2-6.9,4.8-8.9c2.3-1.6,5.1-2.1,7.7-1.2c2.2,0.7,3.4,3.1,2.7,5.3
			c-0.7,2.2-3.1,3.4-5.3,2.7c-0.1,0-0.2-0.1-0.4,0.1c-0.7,0.4-1.2,1.6-1.2,2.4c-0.1,1.4,0.4,2.6,1.5,3.6c1.4,1.4,3.6,2.2,5.6,2.1
			c3.2-0.2,5.2-1.9,6.4-3.3c2-2.4,3.1-5.7,2.7-8.8c-0.4-3.6-2.2-6.8-5.2-9.1c-3.4-2.7-7.8-3.9-12-3.3c-4.6,0.6-8.8,3.2-11.8,7.1
			c-3.2,4.4-4.6,9.9-3.8,15.2c0.9,5.7,4.1,10.8,9,14.4c5.3,3.8,12,5.4,18.4,4.3c6.8-1.2,12.8-5.1,17-11c4.4-6.3,6.1-14.2,4.7-21.6
			c-1.4-7.9-6.1-14.9-13-19.6c-7.3-5-16.3-6.9-24.8-5.2c-9,1.7-16.9,7.1-22.2,14.9c-5.5,8.2-7.6,18.5-5.7,28
			c2,10.1,8,18.8,16.9,24.7c9.2,6.1,20.6,8.3,31.3,6.1c19.1-4,33.8-21.3,34.8-41.2c0.1-2.3,2.1-4.1,4.4-4c2.3,0.1,4.1,2.1,4,4.4
			c-1.2,23.8-18.7,44.4-41.5,49.1C56.2,92.2,52.9,92.5,49.6,92.5z"/>
	</g>
</g>
</svg>
