<?xml version="1.0" encoding="utf-8"?>
<!-- Generator: Adobe Illustrator 23.0.3, SVG Export Plug-In . SVG Version: 6.00 Build 0)  -->
<svg version="1.1" xmlns="http://www.w3.org/2000/svg" xmlns:xlink="http://www.w3.org/1999/xlink" x="0px" y="0px"
	 viewBox="0 0 96 90" style="enable-background:new 0 0 96 90;" xml:space="preserve">
<style type="text/css">
	.st0{display:none;}
	.st1{display:inline;}
</style>
<g id="Layer_1" class="st0">
	<path class="st1" d="M57.5,14.79c-1.91-1.99-5.08-2.06-7.07-0.15c0,0,0,0,0,0L15.81,47.83c-1.99,1.91-2.06,5.08-0.15,7.07
		c0.05,0.05,0.1,0.1,0.15,0.15l34.62,33.19c1.99,1.91,5.16,1.84,7.07-0.15s1.84-5.16-0.15-7.07L26.5,51.44l30.85-29.58
		C59.35,19.95,59.42,16.79,57.5,14.79C57.5,14.79,57.5,14.79,57.5,14.79z"/>
</g>
<g id="Layer_2">
	<g>
		<path d="M89.44,70.9L89.44,70.9L76.4,70.89c-1.41-4.98-5.97-8.42-11.15-8.41c-5.18-0.01-9.73,3.43-11.15,8.41H6.36v0.02
			c-1.67,0.08-3,1.45-3,3.14c0,1.69,1.33,3.05,3,3.14v0.02H54.1c1.71,6.16,8.08,9.76,14.24,8.06c3.91-1.09,6.97-4.14,8.06-8.06
			h13.04c1.74,0,3.15-1.41,3.15-3.15C92.59,72.31,91.18,70.9,89.44,70.9z M65.25,79.31c-2.9,0-5.26-2.35-5.26-5.26
			c0-2.9,2.35-5.26,5.26-5.26c2.9,0,5.26,2.35,5.26,5.26C70.51,76.95,68.16,79.31,65.25,79.31z"/>
		<path d="M89.44,41.98L89.44,41.98l-47.75,0c-1.41-4.98-5.97-8.42-11.15-8.41c-5.18-0.01-9.73,3.43-11.15,8.41H6.36v0.02
			c-1.67,0.08-3,1.45-3,3.14s1.33,3.05,3,3.14v0.02H19.4c1.71,6.16,8.08,9.76,14.24,8.06c3.91-1.09,6.97-4.14,8.06-8.06h47.75v0
			c1.74,0,3.15-1.41,3.15-3.15C92.59,43.39,91.18,41.98,89.44,41.98z M30.55,50.39c-2.9,0-5.26-2.35-5.26-5.26
			c0-2.9,2.35-5.26,5.26-5.26s5.26,2.35,5.26,5.26C35.8,48.03,33.45,50.39,30.55,50.39z"/>
		<path d="M89.44,13.05H76.4c-1.41-4.98-5.97-8.42-11.15-8.41c-5.18-0.01-9.73,3.43-11.15,8.41H6.36v0.02c-1.67,0.08-3,1.45-3,3.14
			c0,1.69,1.33,3.05,3,3.14v0.02H54.1c1.71,6.16,8.08,9.76,14.24,8.06c3.91-1.09,6.97-4.14,8.06-8.06h13.04v-0.01
			c1.74,0,3.15-1.41,3.15-3.15C92.59,14.46,91.18,13.05,89.44,13.05z M65.25,21.47c-2.9,0-5.26-2.35-5.26-5.26s2.35-5.26,5.26-5.26
			c2.9,0,5.26,2.35,5.26,5.26S68.16,21.47,65.25,21.47z"/>
	</g>
</g>
</svg>
