<?xml version="1.0" encoding="utf-8"?>
<!-- Generator: Adobe Illustrator 23.0.3, SVG Export Plug-In . SVG Version: 6.00 Build 0)  -->
<svg version="1.1" id="Layer_1" xmlns="http://www.w3.org/2000/svg" xmlns:xlink="http://www.w3.org/1999/xlink" x="0px" y="0px"
	 viewBox="0 0 77 101.5" style="enable-background:new 0 0 77 101.5;" xml:space="preserve">
<style type="text/css">
	.st0{display:none;}
	.st1{display:inline;}
	.st2{fill:url(#_x33__1_);}
	.st3{fill:url(#_x32__1_);}
	.st4{fill:url(#_x31__1_);}
	.st5{fill:url(#_x33__2_);}
	.st6{fill:url(#_x32__2_);}
	.st7{fill:url(#_x31__2_);}
	.st8{fill:url(#c_2_);}
	.st9{fill:url(#SVGID_1_);}
</style>
<g class="st0">
	<g id="Insight_4_" class="st1">
		<g id="insight_4_">
			
				<linearGradient id="_x33__1_" gradientUnits="userSpaceOnUse" x1="-12.53" y1="49.56" x2="87.47" y2="49.56" gradientTransform="matrix(1 0 0 -1 0 96)">
				<stop  offset="0" style="stop-color:#5BC6F0"/>
				<stop  offset="1" style="stop-color:#2F4A9A"/>
			</linearGradient>
			<path id="_x33__5_" class="st2" d="M87.5,34c0-9.1-7.4-16.4-16.4-16.4S54.6,25,54.6,34c0,2.2,1.8,4,4,4s4-1.8,4-4
				c0-4.7,3.8-8.4,8.4-8.4c4.6,0,8.4,3.8,8.4,8.4c0,4.7-3.8,8.4-8.4,8.4H-8.6c-2.2,0-4,1.8-4,4s1.8,4,4,4H58c4.6,0,8.4,3.8,8.4,8.4
				c0,4.7-3.8,8.4-8.4,8.4s-8.4-3.8-8.4-8.4c0-2.2-1.8-4-4-4c-2.2,0-4,1.8-4,4c0,9.1,7.4,16.4,16.4,16.4s16.4-7.4,16.4-16.4
				c0-3.2-0.9-6-2.4-8.5C80.6,49.9,87.5,42.8,87.5,34z"/>
			
				<linearGradient id="_x32__1_" gradientUnits="userSpaceOnUse" x1="-12.5" y1="23.87" x2="38.14" y2="23.87" gradientTransform="matrix(1 0 0 -1 0 96)">
				<stop  offset="0" style="stop-color:#5BC6F0"/>
				<stop  offset="1" style="stop-color:#2F4A9A"/>
			</linearGradient>
			<path id="_x32__5_" class="st3" d="M22.5,56.6H-8.5c-2.2,0-4,1.8-4,4s1.8,4,4,4h31c4.2,0,7.6,3.4,7.6,7.6s-3.4,7.6-7.6,7.6
				S15,76.3,15,72.1c0-2.2-1.8-4-4-4c-2.2,0-4,1.8-4,4c0,8.5,7,15.6,15.6,15.6c8.5,0,15.6-6.9,15.6-15.6S31.1,56.6,22.5,56.6z"/>
			
				<linearGradient id="_x31__1_" gradientUnits="userSpaceOnUse" x1="-12.53" y1="74.93" x2="50.95" y2="74.93" gradientTransform="matrix(1 0 0 -1 0 96)">
				<stop  offset="0" style="stop-color:#5BC6F0"/>
				<stop  offset="1" style="stop-color:#2F4A9A"/>
			</linearGradient>
			<path id="_x31__5_" class="st4" d="M-8.5,36.5h44.1c8.5,0,15.4-6.9,15.4-15.4c0-8.5-6.9-15.4-15.4-15.4
				c-8.5,0-15.4,6.9-15.4,15.4c0,2.2,1.8,4,4,4c2.2,0,4-1.8,4-4c0-4.1,3.4-7.4,7.4-7.4c4.1,0,7.4,3.4,7.4,7.4c0,4.1-3.4,7.4-7.4,7.4
				H-8.6c-2.2,0-4,1.8-4,4C-12.5,34.7-10.7,36.5-8.5,36.5z"/>
		</g>
	</g>
</g>
<g class="st0">
	<g id="c" class="st1">
		
			<linearGradient id="_x33__2_" gradientUnits="userSpaceOnUse" x1="-11.8957" y1="28.595" x2="87.8014" y2="28.595" gradientTransform="matrix(1 0 0 -1 0 96)">
			<stop  offset="0" style="stop-color:#94D1CF"/>
			<stop  offset="1" style="stop-color:#00A596"/>
		</linearGradient>
		<path id="_x33__4_" class="st5" d="M86.5,69.5L86.5,69.5c-1.4-1.2-2.8-2.6-3.9-4.2c-2.7-3.5-6.1-7.9-12.7-7.9
			c-6.6,0-10,4.3-12.8,7.9c-2.8,3.5-4.5,5.6-8.2,5.6c-3.7,0-5.4-2.1-8.2-5.6c-2.8-3.6-6.1-7.9-12.7-7.9s-10,4.3-12.8,7.9
			c-2.8,3.5-4.5,5.6-8.2,5.6c-3.7,0-5.4-2.1-8.2-5.6c-1.8-2.6-4-4.8-6.6-6.4c-1.5-0.8-3.3-0.1-4,1.5s-0.1,3.7,1.4,4.5
			c1.8,1.2,3.4,2.8,4.7,4.7c2.7,3.5,6.1,7.9,12.7,7.9c6.6,0,10-4.3,12.8-7.9c2.8-3.5,4.5-5.6,8.2-5.6s5.4,2.1,8.2,5.6
			c2.8,3.6,6.1,7.9,12.7,7.9s10-4.3,12.8-7.9c2.8-3.5,4.5-5.6,8.2-5.6c3.7,0,5.4,2.1,8.2,5.6c1.4,2.1,3.2,3.9,5.1,5.4
			c1.4,1,3.3,0.4,4.1-1.2C88.2,72.5,87.8,70.6,86.5,69.5z"/>
		
			<linearGradient id="_x32__2_" gradientUnits="userSpaceOnUse" x1="-11.9957" y1="50.125" x2="87.9342" y2="50.125" gradientTransform="matrix(1 0 0 -1 0 96)">
			<stop  offset="0" style="stop-color:#94D1CF"/>
			<stop  offset="1" style="stop-color:#00A596"/>
		</linearGradient>
		<path id="_x32__4_" class="st6" d="M86.7,48.1c-0.1-0.1-0.1-0.1-0.2-0.2h0c-1.4-1.2-2.7-2.6-3.8-4.2c-2.7-3.5-6.1-7.9-12.7-7.9
			c-6.6,0-10,4.3-12.8,7.9c-2.8,3.5-4.5,5.6-8.2,5.6c-3.7,0-5.4-2.1-8.2-5.6c-2.8-3.6-6.1-7.9-12.7-7.9s-10,4.3-12.8,7.9
			c-2.8,3.5-4.5,5.6-8.2,5.6c-3.7,0-5.4-2.1-8.2-5.6c-1.8-2.6-4-4.8-6.6-6.4c-1.5-0.8-3.3-0.1-4,1.5s-0.1,3.7,1.4,4.5
			c1.8,1.2,3.4,2.8,4.7,4.7c2.7,3.5,6.1,7.9,12.7,7.9c6.6,0,10-4.3,12.8-7.9c2.8-3.5,4.5-5.6,8.2-5.6c3.7,0,5.4,2.1,8.2,5.6
			C39,51.6,42.3,56,48.9,56s10-4.3,12.8-7.9c2.7-3.5,4.5-5.6,8.2-5.6c3.7,0,5.4,2.1,8.2,5.6c1.4,2.1,3.2,3.9,5.1,5.4
			c1.3,1.1,3.2,0.8,4.2-0.7S88,49.2,86.7,48.1z"/>
		
			<linearGradient id="_x31__2_" gradientUnits="userSpaceOnUse" x1="-12.0317" y1="70.335" x2="87.9564" y2="70.335" gradientTransform="matrix(1 0 0 -1 0 96)">
			<stop  offset="0" style="stop-color:#94D1CF"/>
			<stop  offset="1" style="stop-color:#00A596"/>
		</linearGradient>
		<path id="_x31__4_" class="st7" d="M-10.3,23c1.8,1.2,3.4,2.8,4.7,4.7c2.7,3.5,6.1,7.9,12.7,7.9c6.6,0,10-4.3,12.8-7.9
			c2.8-3.5,4.5-5.6,8.2-5.6c3.7,0,5.4,2.1,8.2,5.6c2.8,3.6,6.1,7.9,12.7,7.9s10-4.3,12.8-7.9c2.7-3.5,4.5-5.6,8.2-5.6
			c3.7,0,5.4,2.1,8.2,5.6c1.4,2.1,3.2,3.9,5.1,5.4c1.3,1.1,3.2,0.8,4.2-0.7c1-1.5,0.7-3.6-0.7-4.7c-0.1-0.1-0.1-0.1-0.2-0.2l-0.1,0
			c-1.4-1.2-2.7-2.6-3.8-4.2c-2.7-3.5-6.1-7.9-12.7-7.9c-6.6,0-10,4.3-12.8,7.9c-2.8,3.5-4.5,5.6-8.2,5.6c-3.7,0-5.4-2.1-8.2-5.6
			c-2.8-3.6-6.1-7.9-12.7-7.9s-10,4.3-12.8,7.9C12.5,26.9,10.7,29,7,29c-3.7,0-5.4-2.1-8.2-5.6c-1.8-2.6-4-4.8-6.6-6.4
			c-1.5-0.8-3.3-0.1-4,1.5C-12.5,20.2-11.8,22.2-10.3,23z"/>
	</g>
</g>
<g id="Layer_3" class="st0">
	<g id="Certainty" class="st1">
		<g id="C" transform="translate(0,-952.36218)">
			
				<linearGradient id="c_2_" gradientUnits="userSpaceOnUse" x1="-11.69" y1="48.5872" x2="87.5806" y2="48.5872" gradientTransform="matrix(1 0 0 -1 0 1048.3622)">
				<stop  offset="0" style="stop-color:#95C68F"/>
				<stop  offset="1" style="stop-color:#006033"/>
			</linearGradient>
			<path id="c_1_" class="st8" d="M71,955.8c-4.7,0.3-9.2,1.5-13.1,3.8c-7.2,4.1-12,12.3-10.4,22.7l-5.8,3.8l0.1-11.6
				c0.1-2-1.8-3.9-3.8-3.9c-2,0-3.8,1.9-3.8,3.9l-0.3,30.6l-5.7-3.9c1.8-10.3-2.7-18.7-9.9-22.9c-3.9-2.3-8.4-3.6-13-4
				c-4.7-0.4-9.5,0.1-14.1,1.5c-1.6,0.5-2.7,2-2.7,3.7c0,9.6,3.6,19.2,10.3,25.3c6.2,5.7,15.5,7.6,24.9,2.7l10.1,6.9l-0.1,7.3
				l-19-0.2c-4.9-0.1-9.5,7.6-9.5,12.5c0,3.7,2.3,7,5.5,8.3l2.9,0.8v0c3.3,0.3,3.8,0.3,7.2,0.4l33,0.4c3.4,0,3.4,0,6.7-0.2v0
				l2.9-0.8c3.3-1.3,5.7-4.5,5.7-8.2c0.1-4.9-3.9-12.6-8.7-12.7l-19-0.2l0.3-26.4l10.2-6.7c9.3,5.1,18.7,3.4,25-2.1
				c6.8-5.9,10.6-15.5,10.9-25c0-1.6-1.1-3.2-2.6-3.7C80,956.2,75.5,955.6,71,955.8L71,955.8z M79.6,964.2
				c-0.9,6.5-3.8,12.8-7.9,16.4c-3.5,3-7.4,4.3-12.3,2.8l4.7-3c1.4-0.9,2.1-2.7,1.6-4.3c-0.5-1.6-2.1-2.7-3.7-2.7
				c-0.7,0-1.4,0.2-2,0.7l-5.2,3.4c0-5.5,2.7-8.9,6.8-11.3c2.8-1.5,6.2-2.4,9.9-2.7C74.2,963.3,77.2,963.7,79.6,964.2z M4.4,981.8
				c3.7,0.3,7.1,1.3,9.8,2.9c4.1,2.5,6.7,5.9,6.6,11.5l-5.2-3.5c-0.7-0.5-1.7-0.8-2.5-0.7c-1.6,0.2-3,1.3-3.3,2.9
				c-0.4,1.5,0.3,3.3,1.6,4.1l4.6,3.1c-4.9,1.4-8.8,0-12.2-3.1c-4-3.7-6.8-10.1-7.5-16.6C-0.8,981.8,1.7,981.7,4.4,981.8z"/>
		</g>
	</g>
</g>
<g id="Layer_4">
	<g id="Vitality">
		<g id="V">
			
				<linearGradient id="SVGID_1_" gradientUnits="userSpaceOnUse" x1="0.4856" y1="45.24" x2="76.4828" y2="45.24" gradientTransform="matrix(1 0 0 -1 0 96)">
				<stop  offset="0" style="stop-color:#FFE180"/>
				<stop  offset="1" style="stop-color:#EA3F23"/>
			</linearGradient>
			<path class="st9" d="M34.5,22.2c4.4,8.2,10.9,15,17,21.3c2,2.1,3.9,4,5.8,6c6.6,7.2,11,13.5,11.2,21c0.2,7.1-1.7,15.9-17.7,20.6
				c-4.6,1.3-9.1,2-13.5,2c-5.7,0-11.2-1.1-16.5-3.4C12,86,8.1,80.3,8.5,71.8c0.3-6.7,2-13.1,5.2-19.8c2.6,5.3,6.9,6.5,10.3,6.5h0h0
				c3.9,0,9-1.6,11.4-9.1c0.1-0.2,0.1-0.3,0.2-0.5c2.6-7.6,1-14.7-0.3-20.5L35,27.5C34.6,25.7,34.5,23.9,34.5,22.2 M37.6,0.5
				c-9.2,9-12.7,18.1-10.4,28.7c1.2,5.7,2.8,11.4,0.8,17.2c-0.6,1.8-1,4.1-3.9,4.1c0,0,0,0,0,0c-3,0-3.3-2.4-3.9-4.2
				c-1.8-4.9-0.6-10.1-1.1-16.6C8,43.3,1.1,56.5,0.5,71.5C0,82.8,5.3,91.8,17.7,97c6.4,2.7,12.9,4,19.6,4c5.2,0,10.5-0.8,15.7-2.3
				c16-4.7,23.8-14.2,23.5-28.4C76.3,60,70.3,51.9,63.2,44.1C51.5,31.2,36.5,19.7,37.6,0.5L37.6,0.5z"/>
		</g>
	</g>
</g>
</svg>
